<svg width="50" height="51" viewBox="0 0 50 51" fill="none" xmlns="http://www.w3.org/2000/svg">
<circle opacity="0.3" cx="25" cy="25.5" r="25" fill="#FA8B02"/>
<path d="M20 30.5C21.152 30.4985 22.2682 30.0998 23.1604 29.3711C24.0526 28.6424 24.6663 27.6284 24.898 26.5H27V28.5H29V26.5H31V29.5H33V26.5H34V24.5H24.898C24.6663 23.3716 24.0526 22.3576 23.1604 21.6289C22.2682 20.9002 21.152 20.5015 20 20.5C17.243 20.5 15 22.743 15 25.5C15 28.257 17.243 30.5 20 30.5ZM20 22.5C21.654 22.5 23 23.846 23 25.5C23 27.154 21.654 28.5 20 28.5C18.346 28.5 17 27.154 17 25.5C17 23.846 18.346 22.5 20 22.5Z" fill="#FA8B02"/>
</svg>
