<svg width="50" height="50" viewBox="0 0 50 50" fill="none" xmlns="http://www.w3.org/2000/svg">
<circle opacity="0.3" cx="25" cy="25" r="25" fill="#FA8B02"/>
<path d="M25.3811 27.4466L25.3813 27.4465L33.2504 22.8156V30.4C33.2504 30.8377 33.0766 31.2573 32.7671 31.5668C32.4577 31.8762 32.038 32.05 31.6004 32.05H18.4004C17.9628 32.05 17.5431 31.8762 17.2337 31.5668C16.9242 31.2573 16.7504 30.8377 16.7504 30.4V22.8179L24.6195 27.4465L24.6259 27.4503L24.6325 27.4533L24.7309 27.4989L24.7307 27.4994L24.7421 27.5036C24.8462 27.542 24.9575 27.5567 25.068 27.5469C25.1785 27.537 25.2855 27.5028 25.3811 27.4466ZM33.8278 18.5727C33.237 17.9819 32.4358 17.65 31.6004 17.65H18.4004C17.565 17.65 16.7637 17.9819 16.173 18.5727C15.5823 19.1634 15.2504 19.9646 15.2504 20.8V30.4C15.2504 31.2355 15.5823 32.0367 16.173 32.6274C16.7637 33.2182 17.565 33.55 18.4004 33.55H31.6004C32.4358 33.55 33.237 33.2182 33.8278 32.6274C34.4185 32.0367 34.7504 31.2355 34.7504 30.4V20.8C34.7504 19.9646 34.4185 19.1634 33.8278 18.5727ZM18.4004 19.15H31.6004C32.038 19.15 32.4577 19.3239 32.7671 19.6333C33.0766 19.9428 33.2504 20.3624 33.2504 20.8V21.0743L25.0004 25.93L16.7504 21.0767V20.8C16.7504 20.3624 16.9242 19.9428 17.2337 19.6333C17.5431 19.3239 17.9628 19.15 18.4004 19.15Z" fill="#FA8B02" stroke="#FA8B02" stroke-width="0.3"/>
</svg>
