<svg width="51" height="50" viewBox="0 0 51 50" fill="none" xmlns="http://www.w3.org/2000/svg">
<path d="M25.7998 3.125C13.7197 3.125 3.9248 12.9199 3.9248 25C3.9248 37.0801 13.7197 46.875 25.7998 46.875C37.8799 46.875 47.6748 37.0801 47.6748 25C47.6748 12.9199 37.8799 3.125 25.7998 3.125ZM36.3125 19.6143C36.3271 19.8438 36.3271 20.083 36.3271 20.3174C36.3271 27.4854 30.8682 35.7422 20.8926 35.7422C17.8164 35.7422 14.9648 34.8486 12.5625 33.3105C13.002 33.3594 13.4219 33.3789 13.8711 33.3789C16.4102 33.3789 18.7441 32.5195 20.6045 31.0645C18.2217 31.0156 16.2197 29.4531 15.5361 27.3047C16.3711 27.4268 17.123 27.4268 17.9824 27.207C16.7555 26.9578 15.6527 26.2914 14.8614 25.3212C14.0701 24.351 13.6391 23.1368 13.6416 21.8848V21.8164C14.3594 22.2217 15.2041 22.4707 16.0879 22.5049C15.3449 22.0097 14.7356 21.3389 14.314 20.5519C13.8924 19.7649 13.6715 18.886 13.6709 17.9932C13.6709 16.9824 13.9346 16.0596 14.4082 15.2588C15.77 16.9352 17.4694 18.3064 19.3958 19.283C21.3223 20.2597 23.4327 20.8201 25.5898 20.9277C24.8232 17.2412 27.5771 14.2578 30.8877 14.2578C32.4502 14.2578 33.8564 14.9121 34.8477 15.9668C36.0732 15.7373 37.2451 15.2783 38.29 14.6631C37.8848 15.918 37.0352 16.9775 35.9072 17.6465C37.001 17.5293 38.0557 17.2266 39.0322 16.8018C38.2949 17.8857 37.3721 18.8477 36.3125 19.6143Z" fill="#FA8B02"/>
</svg>
