<svg width="18" height="22" viewBox="0 0 18 22" fill="none" xmlns="http://www.w3.org/2000/svg">
<path d="M8.59979 22C7.05635 20.6835 5.62571 19.2402 4.32284 17.6852C2.36767 15.35 0.0458995 11.8722 0.0458995 8.55818C0.0450516 6.86568 0.546312 5.21097 1.48624 3.80347C2.42618 2.39596 3.76253 1.29893 5.32618 0.651204C6.88982 0.00347864 8.61048 -0.165823 10.2704 0.164725C11.9303 0.495274 13.4548 1.31081 14.6511 2.50813C15.4475 3.30103 16.0788 4.24401 16.5083 5.28249C16.9379 6.32098 17.1573 7.43435 17.1537 8.55818C17.1537 11.8722 14.8319 15.35 12.8767 17.6852C11.5739 19.2402 10.1432 20.6835 8.59979 22ZM8.59979 4.89222C7.62752 4.89222 6.69507 5.27846 6.00757 5.96596C5.32007 6.65346 4.93384 7.58591 4.93384 8.55818C4.93384 9.53045 5.32007 10.4629 6.00757 11.1504C6.69507 11.8379 7.62752 12.2241 8.59979 12.2241C9.57206 12.2241 10.5045 11.8379 11.192 11.1504C11.8795 10.4629 12.2657 9.53045 12.2657 8.55818C12.2657 7.58591 11.8795 6.65346 11.192 5.96596C10.5045 5.27846 9.57206 4.89222 8.59979 4.89222Z" fill="#FA8B02"/>
</svg>
